<svg width="91" height="70" viewBox="0 0 91 70" fill="none" xmlns="http://www.w3.org/2000/svg">
<path fill-rule="evenodd" clip-rule="evenodd" d="M1.63378 26.3838C1.95529 26.0875 2.33723 25.8525 2.75772 25.6921C3.17822 25.5317 3.629 25.4492 4.08426 25.4492C4.53952 25.4492 4.99031 25.5317 5.4108 25.6921C5.8313 25.8525 6.21324 26.0875 6.53475 26.3838L45.6179 62.3144L84.701 26.3838C85.3509 25.7864 86.2323 25.4508 87.1514 25.4508C88.0706 25.4508 88.952 25.7864 89.6019 26.3838C90.2518 26.9812 90.6169 27.7914 90.6169 28.6362C90.6169 29.4811 90.2518 30.2913 89.6019 30.8887L48.0683 69.0653C47.7468 69.3616 47.3649 69.5967 46.9444 69.7571C46.5239 69.9174 46.0731 70 45.6179 70C45.1626 70 44.7118 69.9174 44.2913 69.7571C43.8708 69.5967 43.4889 69.3616 43.1674 69.0653L1.63378 30.8887C1.31146 30.5931 1.05573 30.2421 0.881244 29.8556C0.706759 29.469 0.616943 29.0547 0.616943 28.6362C0.616943 28.2178 0.706759 27.8034 0.881244 27.4169C1.05573 27.0304 1.31146 26.6793 1.63378 26.3838V26.3838Z" fill="white"/>
<path fill-rule="evenodd" clip-rule="evenodd" d="M1.63378 0.934655C1.95529 0.638383 2.33723 0.403323 2.75772 0.24294C3.17822 0.0825564 3.629 0 4.08426 0C4.53952 0 4.99031 0.0825564 5.4108 0.24294C5.8313 0.403323 6.21324 0.638383 6.53475 0.934655L45.6179 36.8654L84.701 0.934655C85.0228 0.638862 85.4048 0.404227 85.8252 0.244144C86.2457 0.0840622 86.6963 0.00166871 87.1514 0.00166871C87.6065 0.00166871 88.0572 0.0840622 88.4776 0.244144C88.8981 0.404227 89.2801 0.638862 89.6019 0.934655C89.9237 1.23045 90.179 1.58161 90.3532 1.96808C90.5273 2.35455 90.6169 2.76877 90.6169 3.18709C90.6169 3.6054 90.5273 4.01962 90.3532 4.40609C90.179 4.79256 89.9237 5.14372 89.6019 5.43952L48.0683 43.6163C47.7468 43.9126 47.3649 44.1476 46.9444 44.308C46.5239 44.4684 46.0731 44.5509 45.6179 44.5509C45.1626 44.5509 44.7118 44.4684 44.2913 44.308C43.8708 44.1476 43.4889 43.9126 43.1674 43.6163L1.63378 5.43952C1.31146 5.14399 1.05573 4.79292 0.881244 4.40641C0.706759 4.0199 0.616943 3.60555 0.616943 3.18709C0.616943 2.76862 0.706759 2.35427 0.881244 1.96776C1.05573 1.58125 1.31146 1.23018 1.63378 0.934655V0.934655Z" fill="white"/>
</svg>
